<svg width="86" height="34" viewBox="0 0 86 34" fill="none" xmlns="http://www.w3.org/2000/svg">
<g clip-path="url(#clip0)">
<path d="M37.0023 11.5192H32.5756V8.75H44.308V11.5192H39.8722V24.256H37.0023V11.5192Z" fill="black"/>
<path d="M53.0801 19.5352H44.4726C44.8606 21.2841 46.0113 22.1586 47.9246 22.1586C49.2563 22.171 50.558 21.7599 51.6451 20.9835L52.7259 22.9329C51.3124 23.9902 49.591 24.5437 47.8321 24.5065C45.8361 24.5065 44.2906 23.8916 43.1955 22.6619C42.2118 21.5703 41.72 20.1994 41.72 18.5491C41.72 16.8138 42.2607 15.3943 43.3422 14.2906C44.4508 13.1565 45.8639 12.5895 47.5817 12.5895C49.2031 12.5895 50.5403 13.1072 51.5933 14.1426C52.6462 15.178 53.1726 16.5702 53.1726 18.3191C53.166 18.726 53.1351 19.1321 53.0801 19.5352ZM45.5533 15.5818C44.9959 16.073 44.6158 16.737 44.4726 17.4697H50.5012C50.427 16.7419 50.0857 16.0685 49.5446 15.5818C48.9911 15.1186 48.289 14.8756 47.5704 14.8986C46.8388 14.8759 46.1232 15.1182 45.5533 15.5818Z" fill="black"/>
<path d="M63.3393 12.8627H65.9159V24.2491H63.3393V22.8508C62.887 23.3878 62.3223 23.8168 61.686 24.107C61.0497 24.3973 60.3575 24.5414 59.6593 24.5292C58.9074 24.5502 58.1597 24.4072 57.4675 24.1101C56.7752 23.813 56.1545 23.3687 55.6478 22.8076C54.5948 21.6613 54.0684 20.2274 54.0684 18.5058C54.0684 16.7842 54.5948 15.3715 55.6478 14.2678C56.1627 13.72 56.7858 13.2876 57.4769 12.9985C58.168 12.7094 58.9115 12.57 59.6593 12.5894C60.3607 12.5836 61.0547 12.735 61.691 13.0327C62.3274 13.3304 62.8904 13.7671 63.3393 14.3111V12.8627ZM62.4661 16.0942C62.1533 15.7753 61.781 15.5222 61.3707 15.3494C60.9604 15.1767 60.5202 15.0878 60.0756 15.0878C59.631 15.0878 59.1909 15.1767 58.7806 15.3494C58.3703 15.5222 57.9979 15.7753 57.6851 16.0942C57.0958 16.7777 56.7712 17.6532 56.7712 18.5593C56.7712 19.4654 57.0958 20.3409 57.6851 21.0245C57.9979 21.3433 58.3703 21.5964 58.7806 21.7692C59.1909 21.9419 59.631 22.0309 60.0756 22.0309C60.5202 22.0309 60.9604 21.9419 61.3707 21.7692C61.781 21.5964 62.1533 21.3433 62.4661 21.0245C63.0894 20.3537 63.4251 19.4616 63.4002 18.5422C63.4191 17.6341 63.0836 16.7549 62.4661 16.0942Z" fill="black"/>
<path d="M84.2095 13.8488C85.0698 14.7172 85.5038 15.9021 85.5113 17.4036V24.2559H82.7767V17.8978C82.7767 16.9869 82.5616 16.2809 82.1315 15.7799C81.9177 15.5409 81.654 15.3527 81.3594 15.2291C81.0648 15.1054 80.7467 15.0493 80.428 15.0649C80.0772 15.0537 79.7281 15.1193 79.4049 15.2573C79.0816 15.3953 78.7918 15.6023 78.5553 15.8642C78.0511 16.4488 77.7907 17.2079 77.8288 17.982V24.2559H75.1326V17.9183C75.1326 17.0393 74.907 16.3378 74.4558 15.8209C74.2435 15.5719 73.9782 15.3746 73.6797 15.2436C73.3812 15.1127 73.0572 15.0516 72.732 15.0649C72.3812 15.0537 72.0321 15.1193 71.7088 15.2573C71.3856 15.3953 71.0957 15.6023 70.8593 15.8642C70.3451 16.4522 70.0773 17.219 70.1125 18.0025V24.2559H67.405V12.8696H70.0651V14.5069C70.3904 13.8995 70.8855 13.4022 71.4888 13.0768C72.1039 12.7264 72.7996 12.5458 73.5059 12.553C75.1394 12.5803 76.2615 13.259 76.8722 14.5889C77.7311 13.2316 79.0848 12.553 80.9334 12.553C81.5381 12.5327 82.1405 12.6372 82.7038 12.86C83.2671 13.0828 83.7794 13.4192 84.2095 13.8488Z" fill="black"/>
<path d="M26.8604 29.8427C26.3941 30.2025 25.9106 30.5388 25.4097 30.8515C25.8609 30.5479 26.2896 30.2276 26.6957 29.8905L26.8356 29.7721L26.8604 29.8427Z" fill="#6DA0FC"/>
<path d="M18.5756 15.0017C18.0437 15.5328 17.3676 15.8927 16.633 16.0358C15.8984 16.1789 15.1382 16.0989 14.4486 15.8058C13.7591 15.5127 13.1712 15.0198 12.7593 14.3893C12.3474 13.7589 12.1301 13.0193 12.1348 12.2641C12.1396 11.5089 12.3662 10.7722 12.7859 10.147C13.2057 9.5219 13.7997 9.0365 14.4929 8.75225C15.1861 8.468 15.9472 8.39769 16.68 8.55022C17.4127 8.70274 18.0842 9.07124 18.6094 9.60909C19.3131 10.3289 19.7049 11.3012 19.6985 12.3125C19.6922 13.3237 19.2883 14.2909 18.5756 15.0017Z" fill="#6DA0FC"/>
<path d="M25.8068 26.8936C25.7707 26.7638 25.7324 26.634 25.6917 26.5065C24.1648 28.0336 22.2886 29.1576 20.229 29.779C18.1695 30.4004 15.9899 30.5001 13.8831 30.0694C11.7763 29.6387 9.807 28.6907 8.14936 27.3094C6.49172 25.928 5.19676 24.1557 4.37892 22.1492C3.56109 20.1427 3.24558 17.9638 3.46027 15.8049C3.67497 13.6461 4.41325 11.5739 5.60988 9.77151C6.80651 7.9691 8.42462 6.49197 10.3212 5.47068C12.2178 4.4494 14.3344 3.91541 16.4841 3.91591H16.5202L15.1438 0.5L14.9995 0.515941C11.7386 0.941893 8.66168 2.28324 6.11891 4.38731L6.08507 4.41464C4.40196 5.77205 3.00435 7.45503 1.97422 9.36486C0.944088 11.2747 0.302178 13.3729 0.0861406 15.5365C-0.129897 17.7 0.0842876 19.8853 0.716131 21.9642C1.34797 24.0431 2.38475 25.9737 3.76566 27.6428C4.15321 28.1117 4.56676 28.558 5.00433 28.9796C5.27357 29.2362 5.55034 29.4844 5.83463 29.7243L5.85493 29.7402C8.3345 31.8108 11.367 33.0923 14.5685 33.4226H14.6069L14.7603 33.434C18.4841 33.7458 22.2089 32.8438 25.3872 30.8606L25.4142 30.8447C25.8655 30.5411 26.2942 30.2207 26.7003 29.8837L26.8402 29.7653L25.8068 26.8936Z" fill="#6DA0FC"/>
<path d="M24.4328 23.8512C23.7434 24.6802 22.9314 25.3969 22.0254 25.9759C20.1529 27.1739 17.9489 27.7336 15.7377 27.5725C13.5265 27.4113 11.425 26.538 9.74243 25.0809C8.93148 24.3763 8.23288 23.5498 7.6712 22.6305C8.75165 21.4051 10.0967 20.4467 11.6025 19.8295C13.1083 19.2122 14.7345 18.9525 16.3555 19.0704C17.9766 19.1884 19.5491 19.6809 20.9515 20.5098C22.354 21.3387 23.5489 22.482 24.444 23.8512H24.4328Z" fill="#6DA0FC"/>
<path d="M26.8604 29.8427C26.3941 30.2025 25.9106 30.5388 25.4097 30.8515C25.8609 30.5479 26.2896 30.2276 26.6957 29.8905L26.8356 29.7721L26.8604 29.8427Z" fill="#6DA0FC"/>
</g>
<defs>
<clipPath id="clip0">
<rect width="85.5" height="33" fill="white" transform="translate(0 0.5)"/>
</clipPath>
</defs>
</svg>
